<?xml version="1.0" encoding="UTF-8"?>
<svg id="_レイヤー_2" data-name="レイヤー 2" xmlns="http://www.w3.org/2000/svg" viewBox="0 0 1214.12 143.18">
  <defs>
    <style>
      .cls-1 {
        fill: #111;
      }

      .cls-2 {
        fill: #f19a96;
      }

      .cls-3 {
        fill: #d10a1c;
      }

      .cls-4 {
        fill: #bba602;
      }
    </style>
  </defs>
  <g id="_レイヤー_1-2" data-name="レイヤー 1">
    <g>
      <g>
        <path class="cls-3" d="M38.07,38.92c8.63-8.85,20.67-14.35,34-14.35s25.37,5.5,34,14.35l21.72-12.54C114.58,10.27,94.53,0,72.07,0S29.56,10.27,16.34,26.37l21.73,12.54Z"/>
        <path class="cls-4" d="M117.79,59.2c1.15,4.09,1.78,8.41,1.78,12.87,0,22.19-15.22,40.83-35.79,46.04v25.07c34.23-5.6,60.36-35.29,60.36-71.11,0-8.95-1.64-17.51-4.62-25.42l-21.72,12.55Z"/>
        <path class="cls-3" d="M60.36,118.11c-20.57-5.21-35.79-23.85-35.79-46.04,0-4.47.63-8.78,1.78-12.87l-21.72-12.55C1.64,54.56,0,63.12,0,72.07c0,35.81,26.13,65.51,60.36,71.11v-25.07Z"/>
        <path class="cls-2" d="M111.63,64.04c-3.3-1.5-5.43-2.95-5.43-2.95,0,0,.87-2.42,2.66-5.58-4.98-2.27-12.63-4.66-19.64-2.38-1.92.63-3.67,1.56-5.26,2.69.58-1.86.93-3.81.93-5.83,0-7.37-4.64-13.9-8.33-17.94-2.45,2.67-4.49,4.26-4.49,4.26,0,0-2.04-1.58-4.49-4.26-3.7,4.04-8.34,10.57-8.34,17.94,0,2.02.35,3.97.93,5.83-1.59-1.13-3.34-2.07-5.26-2.69-7.01-2.28-14.65.12-19.64,2.38,1.79,3.16,2.66,5.58,2.66,5.58,0,0-2.13,1.45-5.44,2.95,2.7,4.77,7.48,11.2,14.49,13.47,1.92.62,3.89.89,5.84.91-1.56,1.16-3,2.54-4.18,4.17-4.34,5.97-4.42,13.98-3.8,19.41,3.55-.72,6.13-.8,6.13-.8,0,0,.72,2.48,1.13,6.08,5.37-1.09,12.95-3.64,17.29-9.61,1.18-1.63,2.05-3.42,2.67-5.27.62,1.85,1.48,3.63,2.67,5.27,4.34,5.97,11.92,8.52,17.29,9.61.41-3.6,1.13-6.08,1.13-6.08,0,0,2.58.08,6.14.8.61-5.44.53-13.45-3.8-19.41-1.19-1.63-2.62-3.01-4.18-4.17,1.95-.02,3.91-.29,5.83-.91,7.02-2.28,11.79-8.71,14.49-13.47ZM85.55,74.95c-1.24,0-2.29-.82-2.65-1.94h-8.76l6.2,6.2c1.05-.51,2.39-.35,3.24.5,1.09,1.09,1.09,2.87,0,3.97-.53.53-1.23.82-1.99.82s-1.45-.29-1.99-.82c-.88-.88-1.04-2.2-.51-3.25l-6.19-6.2v8.77c1.12.37,1.94,1.41,1.94,2.65,0,1.55-1.26,2.81-2.81,2.81s-2.8-1.26-2.8-2.81c0-1.24.82-2.29,1.94-2.65v-8.77l-6.2,6.2c.54,1.05.37,2.37-.51,3.25-.53.53-1.23.82-1.98.82s-1.46-.29-1.99-.82c-1.09-1.09-1.09-2.87,0-3.96.85-.85,2.2-1.01,3.25-.5l6.2-6.2h-8.76c-.37,1.12-1.41,1.94-2.66,1.94-1.55,0-2.8-1.26-2.8-2.8s1.26-2.81,2.8-2.81c1.24,0,2.29.82,2.66,1.94h8.76l-6.19-6.19c-.39.2-.82.32-1.27.32-.75,0-1.46-.29-1.99-.82-1.09-1.09-1.09-2.87,0-3.97,1.06-1.06,2.91-1.06,3.97,0,.88.88,1.04,2.19.51,3.25l6.2,6.2v-8.76c-1.12-.37-1.94-1.41-1.94-2.66,0-1.55,1.26-2.8,2.8-2.8s2.81,1.25,2.81,2.8c0,1.24-.82,2.29-1.94,2.66v8.76l6.19-6.2c-.2-.39-.32-.82-.31-1.27,0-.75.29-1.45.82-1.98,1.06-1.06,2.91-1.06,3.97,0s1.09,2.87,0,3.97c-.53.53-1.24.82-1.99.82-.45,0-.88-.12-1.27-.32l-6.19,6.19h8.76c.37-1.12,1.41-1.94,2.65-1.94,1.55,0,2.81,1.26,2.81,2.81s-1.26,2.8-2.81,2.8Z"/>
      </g>
      <path class="cls-1" d="M203.87,133.93v-46.64l-43.87-69.01h33.64l25.14,42.65,24.79-42.65h33.81l-43.69,69.01v46.64h-29.82Z"/>
      <path class="cls-1" d="M334.95,16.37c35.37,0,61.72,24.62,61.72,59.82s-26.35,59.82-61.72,59.82-61.9-24.62-61.9-59.82,26.53-59.82,61.9-59.82ZM334.95,42.73c-19.25,0-31.56,14.56-31.56,33.46s12.31,33.46,31.56,33.46,31.38-14.74,31.38-33.46-12.31-33.46-31.38-33.46Z"/>
      <path class="cls-1" d="M415.23,133.93V18.28h29.82v89.64h46.47v26.01h-76.29Z"/>
      <path class="cls-1" d="M561.22,16.37c35.37,0,61.72,24.62,61.72,59.82s-26.35,59.82-61.72,59.82-61.9-24.62-61.9-59.82,26.53-59.82,61.9-59.82ZM561.22,42.73c-19.25,0-31.56,14.56-31.56,33.46s12.31,33.46,31.56,33.46,31.38-14.74,31.38-33.46-12.31-33.46-31.38-33.46Z"/>
      <g>
        <polygon class="cls-1" points="1170.43 18.28 1132.98 18.28 1089.46 133.93 1121.88 133.93 1127.78 116.42 1135.58 91.28 1151.7 44.29 1168 91.28 1175.8 116.42 1181.7 133.93 1214.12 133.93 1170.43 18.28"/>
        <circle class="cls-3" cx="1150.58" cy="118.81" r="15.56"/>
      </g>
      <path class="cls-1" d="M773.97,134.02V55.99l-29.31,78.03h-13.18l-29.13-78.03v78.03h-29.83V18.36h41.44l24.1,65.55,24.28-65.55h41.44v115.66h-29.82Z"/>
      <path class="cls-1" d="M823.22,134.02V18.36h84.79v25.14h-54.97v19.25h53.75v25.32h-53.75v20.81h54.97v25.14h-84.79Z"/>
      <path class="cls-1" d="M926.21,134.02V18.36h48.55c36.41,0,62.6,21.85,62.6,57.74s-26.18,57.92-62.42,57.92h-48.73ZM956.04,108.01h18.73c20.29,0,32.08-14.74,32.08-31.91s-10.75-31.73-31.91-31.73h-18.9v63.64Z"/>
      <path class="cls-1" d="M1049.5,134.02V18.36h29.82v115.66h-29.82Z"/>
    </g>
  </g>
</svg>